<svg width="648" height="578" viewBox="0 0 648 578" fill="none" xmlns="http://www.w3.org/2000/svg"><path fill-rule="evenodd" clip-rule="evenodd" d="M326 443.273c82.993 0 150.273-67.28 150.273-150.273S408.993 142.727 326 142.727 175.727 210.007 175.727 293 243.007 443.273 326 443.273zm0-61.534c49.009 0 88.739-39.73 88.739-88.739 0-49.009-39.73-88.739-88.739-88.739-49.009 0-88.739 39.73-88.739 88.739 0 49.009 39.73 88.739 88.739 88.739z" fill="#453166"/><path fill-rule="evenodd" clip-rule="evenodd" d="M326 578c157.401 0 285-127.599 285-285S483.401 8 326 8 41 135.599 41 293s127.599 285 285 285zm0-116.703c92.948 0 168.297-75.349 168.297-168.297S418.948 124.703 326 124.703 157.703 200.052 157.703 293 233.052 461.297 326 461.297z" fill="#453166"/><g clip-path="url(#clip0)" fill="#000"><path d="M190.936 23.266c13.571 2.347 7.446 85.064 7.345 93.948-.198 17.566-1.536 63.94-28.27 65.29-10.45.528-20.833-7.741-20.717-12.227.245-9.531 3.43-26.083 8.733-29.228 1.22-.723 4.837 11.781 8.914 11.501 12.059-.827 8.538-35.565 8.529-42.252-.035-26.386-5.021-54.7-7.134-78.947-.245-2.806 2.514-3.047 4.193-3.495 7.332-1.957 11.016-2.875 18.407-4.59zM288.678 9.14301c15.015 9.34799 8.598 59.85499 8.529 73.62099-.148 29.491-1.448 92.245-43.845 94.052-39.779 1.696-43.092-54.494-43.315-81.496-.174-21.064-4.707-58.06 7.254-77.531 7.917-1.455 11.888-2.114 19.849-3.296 1.432-.212 3.323-.266 3.151 2.049-1.633 21.933-7.297 46.625-7.159 70.015.078 13.138.326 55.374 20.22 55.688 22.541.355 22.661-42.374 22.754-57.357.148-23.94-4.9-49.881-7.065-71.703-.278-2.805 4.182-2.918 5.48-3.027 5.653-.47499 8.483-.67699 14.147-1.01499zM374.147 173.138c-7.105-1.419-6.296-10.427-7.442-16.313-3.91-20.082-9.337-39.554-16.104-58.706-4.247-12.02-10.895-35.901-19.243-38.854-2.306-.815-2.623 21.517-2.606 25.45.12 28.841 5.289 57.813 5.935 85.914.058 2.507-2.748 1.761-4.051 1.756-5.384-.021-8.079-.021-13.463.001-14.264-4.054-7.96-60.216-7.96-70.19 0-26.199-2.313-55.983 3.76-81.893 1.159-4.943 1.169-10.46901 6.226-12.19401 4.574-.038 6.863-.034 11.438.017C337.475 10.891 340.903 18.664 344.329 24.852c12.063 21.781 20.515 46.189 29.817 68.78.409.995 1.154 3.587 2.452 3.664 1.442.084 1.18-8.37 1.151-11.08-.26-24.871-6.048-50.569-7.355-74.158-.144-2.58901 3.176-1.905 5.915-1.663 4.384.388 6.572.602 10.948 1.071 4.522 1.628 4.315 4.937 5.851 9.401 8.466 24.607 4.078 58.867 4.071 84.085-.003 9.449 6.053 65.333-7.907 68.722-6.043-.243-9.067-.35-15.125-.536zM484.367 30.28c1.394.396 4.473.586 4.453 3.438-.148 21.639-23.269 41.813-23.771 53.57-.832 19.48 26.833 55.501 26.829 90.161-.001 4.826-2.916 3.437-5.979 3.119-6.795-.707-10.206-1.04-17.056-1.67-3.509-.323-3.045-5.67-3.09-7.651-.416-18.397-6.349-61.648-15.511-63.886-4.349-1.062-15.452 14.525-15.602 22.745-.246 13.487 4.072 29.528 4.832 43.174.119 2.135-1.135 3.126-2.698 3.016-6.936-.489-10.413-.714-17.386-1.127-14.236-4.772-7.867-58.636-7.867-68.969 0-10.538-6.594-86.266 9.864-90.06 5.769.963 8.648 1.481 14.392 2.588 1.849.356 5.215.849 4.831 3.969-1.939 15.76-6.625 35.557-6.966 53.266-.039 2.045.676 12.702 2.421 12.277 12.605-3.065 25.776-39.229 30.812-57.661 1.021-3.74.847-4.583 4.071-3.934 5.387 1.389 8.071 2.115 13.421 3.635zM208.767 184.924c1.704-.111 7.244-.494 6.825 2.795-1.076 8.446-6.313 25.96-10.938 28.521-1.167.646-6.777-8.618-20.48-7.745-13.109.835-20.044 14.009-19.884 25.982.143 10.688.734 14.531 4.465 14.175 9.745-.928 17.255-9.028 28.536-9.105 1.53-.01 5.049.155 4.813 3.079-.73 9.014-3.633 27.804-7.921 30.172-.631.349-5.297-2.562-10.71-2.656-13.136-.229-18.77 12.549-18.484 23.945.364 14.577 4.009 29.491 5.444 43.465.216 2.103-3.353 1.354-4.607 1.246-6.583-.571-9.863-.874-16.391-1.506-13.285-3.544-7.591-54.367-7.591-63.163 0-14.195-7.401-75.451 9.527-84.445 19.115-1.854 38.235-3.437 57.396-4.76zM255.373 347.17c-31.697-.896-40.277-36.64-40.208-62.292.074-27.388 9.045-104.111 47.402-105.549 39.204-1.47 47.726 80.067 47.805 106.319.077 25.355-7.925 63.396-40.602 62.004-5.766-.17-8.646-.266-14.397-.482zm31.571-65.924c-.53-16.283-5.729-70.738-24.376-70.325-18.627.413-23.729 53.202-24.273 70.019-.508 15.717 6.894 31.414 24.273 31.773 17.67.365 24.887-15.772 24.376-31.467zM358.265 348.135c-32.69 1.003-40.729-36.985-40.657-62.477.075-26.515 8.63-107.908 47.879-106.921 38.689.973 47.532 79.112 47.611 106.401.074 25.694-8.367 62.137-40.395 62.672-5.77.153-8.658.217-14.438.325zm31.582-67.041c-.546-16.813-5.689-70.271-24.36-70.548-18.728-.278-23.896 54.305-24.431 70.757-.513 15.765 6.699 31.979 24.431 31.733 17.536-.243 24.871-16.162 24.36-31.942zM431.654 342.436c-13.727-3.048-7.841-58.419-7.841-67.553 0-11.829-7.187-84.722 9.833-90.321 9.674.599 14.492.933 24.081 1.666 40.006 4.383 49.112 64.83 49.628 94.538.431 24.825-9.292 57.073-39.075 59.186-12.199.959-24.409 1.781-36.626 2.484zm14.344-72.027c.281 10.847-1.385 48.043 17.223 46.289 17.675-1.666 22.049-28.893 21.701-42.87-.465-18.68-9.146-66.293-27.054-65.677-9.521.328-11.862 24.572-11.871 35.415 0 10.738.001 16.105.001 26.843zM56.917 455.072c-5.605-3.738-5.321-9.486-6.684-15.672-3.634-16.488-8.266-32.471-14.114-48.166-4.003-10.743-8.885-27.775-16.619-32.575-2.156-1.338-2.244 13.451-2.224 16.037.15 20.107 4.2 40.577 5.074 59.776.075 1.646-2.355-.251-3.468-.942-4.599-2.856-6.882-4.315-11.41401-7.292-10.749-9.41-6.674997-35.676-6.669997-47.836.004-9.435-4.623003-52.243 8.376997-56.059 3.85801.881 5.80001 1.314 9.70701 2.165 19.943 10.202 30.388 52.647 38.036 70.537.372.869 1.032 3.031 2.196 3.444 1.292.458 1.065-6.081 1.033-8.136-.296-19.185-5.249-39.375-6.577-57.293-.141-1.895 2.831-1.095 5.285-.656 3.928.701 5.901 1.048 9.867 1.722 15.821 7.524 9.044 63.066 9.037 75.657-.003 5.107 3.338 54.626-7.209 52.064-5.49-2.632-8.217-3.988-13.633-6.775zM96.582 473.534c-10.404-6.438-5.565-30.296-5.597-40.233-.057-18.044 2.105-36.702 4.145-54.9 1.338-11.936 1.018-28.464 7.073-39.059 17.91 2.469 35.835 4.648 53.811 6.576 1.667.172 6.675.13 6.675 3.734 0 1.442-8.895 25.44-10.695 25.18-2.354-.341-6.627-9.115-19.968-11.2-11.942-1.866-19.645 8.782-19.319 19.824.101 3.408.536 9.67 4.332 10.512 4.338.962 13.99-5.051 25.562-2.984 1.654.296 6.561 2.224 6.211 4.806-1.084 8.009-6.113 25.541-9.376 26.941-.532.229-6.628-5.035-11.921-6.268-10.946-2.55-17.257 8.866-16.969 18.365.343 11.306 5.087 24.816 17.104 28.685 13.42 4.319 23.614-5.596 25.313-4.341 5.882 4.343 10.303 24.707 11.396 35.114.321 3.057-3.482 1.732-5.15 1.253-21.281-6.363-42.046-13.651-62.627-22.005zM203.023 506.329c-13.44-3.166-8.94-39.212-8.912-48.501.075-24.781 5.32-50.251 6.221-74.263.203-5.409.456-9.196-2.829-9.271-11.047-.25-22.676 16.121-29.936 17.54-.832.162-2.091.29-1.953-4.63.294-10.51 1.449-26.628 5.866-32.495 5.536-7.354 27.322-7.718 39.49-6.968 13.21.813 41.789 6.008 43.469 19.748.892 7.289-4.584 24.546-8.617 26.457-1.13.536-11.254-18.778-18.61-17.293-10.754 2.172-10.216 40.384-10.126 52.978.188 26.235 5.868 53.465 7.84 77.531.315 3.847-5.135 2.371-6.986 2.039-5.981-1.071-8.965-1.646-14.917-2.872zM367.004 353.793c11.475 1.639 8.104 24.448 8.081 32.472-.115 40.57-25.03 136.028-35.551 136.885-5.712.465-22.499-52.034-25.906-52.001-4.458.043-20.589 51.824-25.889 51.092-13.048-1.803-30.647-83.133-30.999-118.848-.095-9.661-4.934-44.771 5.757-50.167 7.141.257 10.717.368 17.877.55 1.444.037 3.53.518 3.32 2.831-1.157 12.75-4.119 27.676-4.186 41.479-.094 19.333 5.749 70.73 11.987 71.441 7.276.829 16.287-56.42 16.344-74.436.04-12.626-1.772-26.351-2.604-38.303-.153-2.197.867-2.552 2.459-2.537 7.524.071 11.29.087 18.817.076 1.881-.003 3.774.554 3.617 3.345-.658 11.71-2.715 24.744-2.749 36.932-.055 19.535 6.687 75.129 12.591 75.463 6.53.369 15.663-50.618 15.619-68.2-.036-14.58-3.819-30.885-4.914-44.789-.228-2.896 1.734-2.981 3.036-3.004 5.321-.092 7.98-.148 13.293-.281zM421.317 513.588c-32.475 6.012-40.398-32.905-40.32-56.858.092-28.074 8.444-106.056 47.454-108.448 37.251-2.285 46.719 70.463 46.768 95.749.051 26.65-9.213 61.28-39.65 67.015-5.688 1.086-8.54 1.596-14.252 2.542zm31.118-69.483c-.448-14.879-6.011-66.505-23.983-64.987-19.016 1.605-23.554 53.705-24.164 71.323-.525 15.169 6.709 30.894 24.162 28.035 16.827-2.755 24.465-18.433 23.985-34.371zM531.604 341.298c17.641-2.919 31.331 7.116 31.217 25.153-.115 18.279-20.126 35.398-20.012 43.304.16 11.097 23.137 31.59 23.975 55.08.06 1.665-.523 2.289-3.301 3.528-5.979 2.668-8.988 3.957-15.04 6.447-2.409.991-6.551 3.13-6.576.51-.126-13.063-7.605-46.699-18.688-47.016-3.028-.086-14.197 10.844-14.099 20.521.126 12.281 4.061 25.546 5.08 36.736.243 2.667-3.433 3.227-4.808 3.678-6.378 2.094-9.581 3.094-16.017 5.001-12.219.181-7.642-55.008-7.644-61.926-.004-13.271-7.447-78.829 9.584-86.729 12.127-1.279 24.238-2.707 36.329-4.287zm9.588 32.473c.295-10.122-8.154-12.575-15.291-11.672-18.061 2.286-17.616 25.242-17.785 38.725-.045 3.626.76 10.971 4.258 9.752 11.694-4.074 28.403-22.535 28.818-36.805zM640.751 321.925c1.218-.28 3.926-1.356 3.889.577-.345 17.869-21.907 40.723-20.88 48.218 1.234 9.003 23.681 26.983 23.54 48.509-.021 3.269-2.534 4.279-5.209 6.049-5.933 3.925-8.93 5.834-14.979 9.553-3.099 1.905-2.679-2.252-2.73-3.664-.419-11.46-7.6-39.429-13.792-38.816-4.277.423-13.771 16.249-14.008 24.511-.266 9.258 3.631 21.121 4.352 30.625.121 1.591-1.02 2.997-2.428 3.749-6.248 3.335-9.398 4.951-15.744 8.08-10.427 2.724-7.173-46.326-7.175-51.307-.005-13.141-6.554-66.296 8.994-74.779 5.244-.915 7.85-1.384 13.026-2.348 1.666-.311 4.657-.876 4.35 1.475-1.668 12.743-5.901 28.916-6.273 43.273-.041 1.564.447 9.57 2.18 8.465 12.454-7.944 22.538-36.867 27.512-55.167.844-3.105.751-3.613 3.595-4.362 4.748-1.034 7.103-1.564 11.78-2.641z"/></g><g clip-path="url(#clip1)" fill="#965B82"><path d="M190.936 15.266c13.571 2.347 7.446 85.064 7.345 93.948-.198 17.566-1.536 63.94-28.27 65.29-10.45.528-20.833-7.741-20.717-12.227.245-9.531 3.43-26.083 8.733-29.228 1.22-.723 4.837 11.781 8.914 11.501 12.059-.827 8.538-35.565 8.529-42.252-.035-26.386-5.021-54.7-7.134-78.947-.245-2.806 2.514-3.047 4.193-3.495 7.332-1.957 11.016-2.875 18.407-4.59zM288.678 1.14301c15.015 9.34799 8.598 59.85499 8.529 73.62099-.148 29.491-1.448 92.245-43.845 94.052-39.779 1.696-43.092-54.494-43.315-81.496-.174-21.064-4.707-58.06 7.254-77.53099 7.917-1.455 11.888-2.114 19.849-3.296 1.432-.212 3.323-.266 3.151 2.049-1.633 21.93299-7.297 46.62499-7.159 70.01499.078 13.138.326 55.374 20.22 55.688 22.541.355 22.661-42.374 22.754-57.357.148-23.94-4.9-49.881-7.065-71.70299-.278-2.805 4.182-2.918 5.48-3.027 5.653-.475 8.483-.677 14.147-1.015zM374.147 165.138c-7.105-1.419-6.296-10.427-7.442-16.313-3.91-20.082-9.337-39.554-16.104-58.706-4.247-12.02-10.895-35.901-19.243-38.854-2.306-.815-2.623 21.517-2.606 25.45.12 28.841 5.289 57.813 5.935 85.914.058 2.507-2.748 1.761-4.051 1.756-5.384-.021-8.079-.021-13.463.001-14.264-4.054-7.96-60.216-7.96-70.19 0-26.199-2.313-55.983 3.76-81.893 1.159-4.94301 1.169-10.46901 6.226-12.194011 4.574-.0379998 6.863-.0339997 11.438.017C337.475 2.89099 340.903 10.664 344.329 16.852c12.063 21.781 20.515 46.189 29.817 68.78.409.995 1.154 3.587 2.452 3.664 1.442.084 1.18-8.37 1.151-11.08-.26-24.871-6.048-50.569-7.355-74.15801-.144-2.589 3.176-1.905 5.915-1.663 4.384.388 6.572.602 10.948 1.071 4.522 1.628 4.315 4.937 5.851 9.40101 8.466 24.607 4.078 58.867 4.071 84.085-.003 9.449 6.053 65.333-7.907 68.722-6.043-.243-9.067-.35-15.125-.536zM484.367 22.28c1.394.396 4.473.586 4.453 3.438-.148 21.639-23.269 41.813-23.771 53.57-.832 19.48 26.833 55.501 26.829 90.161-.001 4.826-2.916 3.437-5.979 3.119-6.795-.707-10.206-1.04-17.056-1.67-3.509-.323-3.045-5.67-3.09-7.651-.416-18.397-6.349-61.648-15.511-63.886-4.349-1.062-15.452 14.525-15.602 22.745-.246 13.487 4.072 29.528 4.832 43.174.119 2.135-1.135 3.126-2.698 3.016-6.936-.489-10.413-.714-17.386-1.127-14.236-4.772-7.867-58.636-7.867-68.969 0-10.538-6.594-86.266 9.864-90.05999 5.769.963 8.648 1.481 14.392 2.58799 1.849.356 5.215.849 4.831 3.969-1.939 15.76-6.625 35.557-6.966 53.266-.039 2.045.676 12.702 2.421 12.277 12.605-3.065 25.776-39.229 30.812-57.661 1.021-3.74.847-4.583 4.071-3.934 5.387 1.389 8.071 2.115 13.421 3.635zM208.767 176.924c1.704-.111 7.244-.494 6.825 2.795-1.076 8.446-6.313 25.96-10.938 28.521-1.167.646-6.777-8.618-20.48-7.745-13.109.835-20.044 14.009-19.884 25.982.143 10.688.734 14.531 4.465 14.175 9.745-.928 17.255-9.028 28.536-9.105 1.53-.01 5.049.155 4.813 3.079-.73 9.014-3.633 27.804-7.921 30.172-.631.349-5.297-2.562-10.71-2.656-13.136-.229-18.77 12.549-18.484 23.945.364 14.577 4.009 29.491 5.444 43.465.216 2.103-3.353 1.354-4.607 1.246-6.583-.571-9.863-.874-16.391-1.506-13.285-3.544-7.591-54.367-7.591-63.163 0-14.195-7.401-75.451 9.527-84.445 19.115-1.854 38.235-3.437 57.396-4.76zM255.373 339.17c-31.697-.896-40.277-36.64-40.208-62.292.074-27.388 9.045-104.111 47.402-105.549 39.204-1.47 47.726 80.067 47.805 106.319.077 25.355-7.925 63.396-40.602 62.004-5.766-.17-8.646-.266-14.397-.482zm31.571-65.924c-.53-16.283-5.729-70.738-24.376-70.325-18.627.413-23.729 53.202-24.273 70.019-.508 15.717 6.894 31.414 24.273 31.773 17.67.365 24.887-15.772 24.376-31.467zM358.265 340.135c-32.69 1.003-40.729-36.985-40.657-62.477.075-26.515 8.63-107.908 47.879-106.921 38.689.973 47.532 79.112 47.611 106.401.074 25.694-8.367 62.137-40.395 62.672-5.77.153-8.658.217-14.438.325zm31.582-67.041c-.546-16.813-5.689-70.271-24.36-70.548-18.728-.278-23.896 54.305-24.431 70.757-.513 15.765 6.699 31.979 24.431 31.733 17.536-.243 24.871-16.162 24.36-31.942zM431.654 334.436c-13.727-3.048-7.841-58.419-7.841-67.553 0-11.829-7.187-84.722 9.833-90.321 9.674.599 14.492.933 24.081 1.666 40.006 4.383 49.112 64.83 49.628 94.538.431 24.825-9.292 57.073-39.075 59.186-12.199.959-24.409 1.781-36.626 2.484zm14.344-72.027c.281 10.847-1.385 48.043 17.223 46.289 17.675-1.666 22.049-28.893 21.701-42.87-.465-18.68-9.146-66.293-27.054-65.677-9.521.328-11.862 24.572-11.871 35.415 0 10.738.001 16.105.001 26.843zM56.917 447.072c-5.605-3.738-5.321-9.486-6.684-15.672-3.634-16.488-8.266-32.471-14.114-48.166-4.003-10.743-8.885-27.775-16.619-32.575-2.156-1.338-2.244 13.451-2.224 16.037.15 20.107 4.2 40.577 5.074 59.776.075 1.646-2.355-.251-3.468-.942-4.599-2.856-6.882-4.315-11.41401-7.292-10.749-9.41-6.674997-35.676-6.669997-47.836.004-9.435-4.623003-52.243 8.376997-56.059 3.85801.881 5.80001 1.314 9.70701 2.165 19.943 10.202 30.388 52.647 38.036 70.537.372.869 1.032 3.031 2.196 3.444 1.292.458 1.065-6.081 1.033-8.136-.296-19.185-5.249-39.375-6.577-57.293-.141-1.895 2.831-1.095 5.285-.656 3.928.701 5.901 1.048 9.867 1.722 15.821 7.524 9.044 63.066 9.037 75.657-.003 5.107 3.338 54.626-7.209 52.064-5.49-2.632-8.217-3.988-13.633-6.775zM96.582 465.534c-10.404-6.438-5.565-30.296-5.597-40.233-.057-18.044 2.105-36.702 4.145-54.9 1.338-11.936 1.018-28.464 7.073-39.059 17.91 2.469 35.835 4.648 53.811 6.576 1.667.172 6.675.13 6.675 3.734 0 1.442-8.895 25.44-10.695 25.18-2.354-.341-6.627-9.115-19.968-11.2-11.942-1.866-19.645 8.782-19.319 19.824.101 3.408.536 9.67 4.332 10.512 4.338.962 13.99-5.051 25.562-2.984 1.654.296 6.561 2.224 6.211 4.806-1.084 8.009-6.113 25.541-9.376 26.941-.532.229-6.628-5.035-11.921-6.268-10.946-2.55-17.257 8.866-16.969 18.365.343 11.306 5.087 24.816 17.104 28.685 13.42 4.319 23.614-5.596 25.313-4.341 5.882 4.343 10.303 24.707 11.396 35.114.321 3.057-3.482 1.732-5.15 1.253-21.281-6.363-42.046-13.651-62.627-22.005zM203.023 498.329c-13.44-3.166-8.94-39.212-8.912-48.501.075-24.781 5.32-50.251 6.221-74.263.203-5.409.456-9.196-2.829-9.271-11.047-.25-22.676 16.121-29.936 17.54-.832.162-2.091.29-1.953-4.63.294-10.51 1.449-26.628 5.866-32.495 5.536-7.354 27.322-7.718 39.49-6.968 13.21.813 41.789 6.008 43.469 19.748.892 7.289-4.584 24.546-8.617 26.457-1.13.536-11.254-18.778-18.61-17.293-10.754 2.172-10.216 40.384-10.126 52.978.188 26.235 5.868 53.465 7.84 77.531.315 3.847-5.135 2.371-6.986 2.039-5.981-1.071-8.965-1.646-14.917-2.872zM367.004 345.793c11.475 1.639 8.104 24.448 8.081 32.472-.115 40.57-25.03 136.028-35.551 136.885-5.712.465-22.499-52.034-25.906-52.001-4.458.043-20.589 51.824-25.889 51.092-13.048-1.803-30.647-83.133-30.999-118.848-.095-9.661-4.934-44.771 5.757-50.167 7.141.257 10.717.368 17.877.55 1.444.037 3.53.518 3.32 2.831-1.157 12.75-4.119 27.676-4.186 41.479-.094 19.333 5.749 70.73 11.987 71.441 7.276.829 16.287-56.42 16.344-74.436.04-12.626-1.772-26.351-2.604-38.303-.153-2.197.867-2.552 2.459-2.537 7.524.071 11.29.087 18.817.076 1.881-.003 3.774.554 3.617 3.345-.658 11.71-2.715 24.744-2.749 36.932-.055 19.535 6.687 75.129 12.591 75.463 6.53.369 15.663-50.618 15.619-68.2-.036-14.58-3.819-30.885-4.914-44.789-.228-2.896 1.734-2.981 3.036-3.004 5.321-.092 7.98-.148 13.293-.281zM421.317 505.588c-32.475 6.012-40.398-32.905-40.32-56.858.092-28.074 8.444-106.056 47.454-108.448 37.251-2.285 46.719 70.463 46.768 95.749.051 26.65-9.213 61.28-39.65 67.015-5.688 1.086-8.54 1.596-14.252 2.542zm31.118-69.483c-.448-14.879-6.011-66.505-23.983-64.987-19.016 1.605-23.554 53.705-24.164 71.323-.525 15.169 6.709 30.894 24.162 28.035 16.827-2.755 24.465-18.433 23.985-34.371zM531.604 333.298c17.641-2.919 31.331 7.116 31.217 25.153-.115 18.279-20.126 35.398-20.012 43.304.16 11.097 23.137 31.59 23.975 55.08.06 1.665-.523 2.289-3.301 3.528-5.979 2.668-8.988 3.957-15.04 6.447-2.409.991-6.551 3.13-6.576.51-.126-13.063-7.605-46.699-18.688-47.016-3.028-.086-14.197 10.844-14.099 20.521.126 12.281 4.061 25.546 5.08 36.736.243 2.667-3.433 3.227-4.808 3.678-6.378 2.094-9.581 3.094-16.017 5.001-12.219.181-7.642-55.008-7.644-61.926-.004-13.271-7.447-78.829 9.584-86.729 12.127-1.279 24.238-2.707 36.329-4.287zm9.588 32.473c.295-10.122-8.154-12.575-15.291-11.672-18.061 2.286-17.616 25.242-17.785 38.725-.045 3.626.76 10.971 4.258 9.752 11.694-4.074 28.403-22.535 28.818-36.805zM640.751 313.925c1.218-.28 3.926-1.356 3.889.577-.345 17.869-21.907 40.723-20.88 48.218 1.234 9.003 23.681 26.983 23.54 48.509-.021 3.269-2.534 4.279-5.209 6.049-5.933 3.925-8.93 5.834-14.979 9.553-3.099 1.905-2.679-2.252-2.73-3.664-.419-11.46-7.6-39.429-13.792-38.816-4.277.423-13.771 16.249-14.008 24.511-.266 9.258 3.631 21.121 4.352 30.625.121 1.591-1.02 2.997-2.428 3.749-6.248 3.335-9.398 4.951-15.744 8.08-10.427 2.724-7.173-46.326-7.175-51.307-.005-13.141-6.554-66.296 8.994-74.779 5.244-.915 7.85-1.384 13.026-2.348 1.666-.311 4.657-.876 4.35 1.475-1.668 12.743-5.901 28.916-6.273 43.273-.041 1.564.447 9.57 2.18 8.465 12.454-7.944 22.538-36.867 27.512-55.167.844-3.105.751-3.613 3.595-4.362 4.748-1.034 7.103-1.564 11.78-2.641z"/></g><path d="M194.538 21.8409c13.187 2.2816 7.235 82.6951 7.137 91.3321-.192 17.076-1.492 62.159-27.471 63.471-10.154.514-20.244-7.525-20.131-11.886.238-9.266 3.333-25.357 8.486-28.414 1.186-.703 4.7 11.453 8.662 11.18 11.718-.804 8.297-34.574 8.288-41.075-.034-25.6511-4.879-53.1766-6.932-76.7483-.238-2.7279 2.443-2.9622 4.074-3.3977 7.125-1.9025 10.705-2.7949 17.887-4.4621zM289.516 8.11118c14.591 9.08762 8.355 58.18812 8.288 71.57072-.144 28.6701-1.407 89.6761-42.605 91.4331-38.655 1.648-41.874-52.977-42.091-79.2268-.169-20.4773-4.573-56.443 7.049-75.3718 7.694-1.4145 11.552-2.0551 19.288-3.2042 1.392-.2061 3.229-.2586 3.062 1.9919-1.587 21.3222-7.091 45.3266-6.957 68.0652.076 12.7721.317 53.8317 19.649 54.1367 21.904.346 22.02-41.1935 22.11-55.7592.144-23.2733-4.761-48.4919-6.865-69.7062-.27-2.72687 4.064-2.83673 5.325-2.94269 5.493-.46177 8.243-.65815 13.747-.98673zM372.569 167.539c-6.904-1.379-6.118-10.137-7.232-15.859-3.799-19.522-9.073-38.452-15.648-57.0707-4.127-11.6853-10.587-34.9012-18.699-37.772-2.241-.7923-2.549 20.9178-2.533 24.7413.117 28.0374 5.14 56.2034 5.767 83.5214.057 2.437-2.67 1.712-3.936 1.707-5.232-.02-7.851-.02-13.082.001-13.861-3.941-7.735-58.539-7.735-68.2353 0-25.4693-2.248-54.4239 3.653-79.6123 1.127-4.8054 1.136-10.17748 6.05-11.85444 4.445-.03694 6.669-.03305 11.115.01653 6.645 2.688 9.976 10.24451 13.305 16.26021 11.722 21.1744 19.935 44.9027 28.974 66.8645.397.9673 1.121 3.4871 2.383 3.562 1.401.0817 1.146-8.1369 1.118-10.7714-.253-24.1784-5.877-49.1607-7.147-72.0928-.14-2.51691 3.086-1.85196 5.748-1.6167 4.26.3772 6.386.58524 10.638 1.0412 4.394 1.5826 4.193 4.7995 5.686 9.1392 8.226 23.9217 3.962 57.2276 3.956 81.7433-.003 9.186 5.882 63.514-7.684 66.808-5.872-.236-8.81-.34-14.697-.521zM479.673 28.6595c1.354.385 4.346.5697 4.327 3.3423-.144 21.0363-22.611 40.6485-23.099 52.0781-.809 18.9371 26.074 53.9551 26.07 87.6501-.001 4.692-2.833 3.341-5.81 3.032-6.603-.687-9.917-1.011-16.574-1.623-3.409-.314-2.958-5.512-3.002-7.438-.404-17.885-6.17-59.931-15.073-62.107-4.226-1.033-15.015 14.12-15.16 22.111-.24 13.112 3.956 28.706 4.695 41.972.115 2.076-1.103 3.039-2.622 2.932-6.74-.475-10.118-.694-16.894-1.095-13.834-4.64-7.645-57.004-7.645-67.049 0-10.2443-6.407-83.8634 9.585-87.5517 5.606.9362 8.404 1.4398 13.985 2.5159 1.797.3461 5.068.8254 4.695 3.8585-1.884 15.3211-6.438 34.5668-6.769 51.7826-.038 1.988.657 12.3483 2.352 11.9351 12.249-2.9797 25.047-38.1365 29.941-56.0552.992-3.6359.823-4.4554 3.956-3.8245 5.235 1.3504 7.843 2.0561 13.042 3.5338zM211.865 178.997c1.655-.108 7.039-.48 6.632 2.717-1.046 8.211-6.135 25.237-10.629 27.727-1.134.628-6.586-8.378-19.901-7.53-12.739.812-19.477 13.619-19.322 25.259.139 10.39.713 14.126 4.339 13.78 9.469-.902 16.767-8.776 27.729-8.851 1.487-.01 4.906.15 4.677 2.993-.709 8.763-3.53 27.03-7.697 29.332-.613.339-5.147-2.491-10.407-2.582-12.765-.223-18.24 12.199-17.962 23.278.354 14.171 3.896 28.67 5.29 42.254.21 2.045-3.258 1.317-4.476 1.212-6.397-.555-9.585-.85-15.928-1.464-12.909-3.446-7.376-52.853-7.376-61.404 0-13.8-7.192-73.35 9.257-82.094 18.575-1.802 37.154-3.341 55.774-4.627zM257.153 336.724c-30.801-.871-39.138-35.619-39.071-60.557.072-26.625 8.789-101.211 46.061-102.609 38.096-1.429 46.377 77.837 46.454 103.358.075 24.649-7.701 61.63-39.454 60.277-5.603-.165-8.402-.259-13.99-.469zm30.678-64.088c-.515-15.829-5.567-68.768-23.687-68.366-18.1.401-23.058 51.72-23.586 68.069-.494 15.279 6.699 30.539 23.586 30.888 17.171.355 24.184-15.333 23.687-30.591zM357.136 337.663c-31.766.975-39.578-35.955-39.508-60.737.073-25.777 8.386-104.903 46.526-103.944 37.595.946 46.188 76.909 46.265 103.438.072 24.978-8.131 60.407-39.253 60.927-5.607.148-8.414.211-14.03.316zm30.689-65.174c-.531-16.345-5.528-68.314-23.671-68.584-18.199-.27-23.221 52.793-23.741 68.787-.498 15.326 6.51 31.088 23.741 30.849 17.04-.236 24.168-15.712 23.671-31.052zM428.45 332.122c-13.339-2.963-7.619-56.792-7.619-65.671 0-11.5-6.984-82.363 9.555-87.806 9.4.582 14.082.907 23.4 1.62 38.875 4.261 47.723 63.024 48.225 91.905.418 24.133-9.03 55.483-37.971 57.537-11.854.933-23.718 1.732-35.59 2.415zm13.938-70.021c.273 10.545-1.345 46.705 16.736 45 17.176-1.62 21.426-28.088 21.088-41.676-.452-18.16-8.887-64.447-26.289-63.848-9.252.319-11.527 23.888-11.536 34.429 0 10.439.001 15.656.001 26.095zM64.3078 441.622c-5.4465-3.634-5.1705-9.222-6.495-15.236-3.5313-16.029-8.0323-31.567-13.715-46.825-3.8898-10.443-8.6338-27.001-16.1491-31.667-2.095-1.301-2.1806 13.076-2.1611 15.59.1457 19.547 4.0812 39.447 4.9305 58.111.0729 1.6-2.2884-.244-3.3699-.916-4.469-2.776-6.6874-4.194-11.0913-7.088-10.44511-9.148-6.4863-34.683-6.48144-46.504.00389-9.173-4.49229-50.788 8.14014-54.498 3.7489.856 5.636 1.277 9.4326 2.105 19.3791 9.917 29.5288 51.18 36.9606 68.572.3615.845 1.0028 2.947 2.1339 3.348 1.2555.446 1.0349-5.911 1.0038-7.909-.2876-18.651-5.1006-38.279-6.3911-55.698-.137-1.842 2.751-1.064 5.1356-.637 3.817.681 5.7342 1.019 9.5881 1.674 15.3737 7.314 8.7883 61.309 8.7815 73.55-.003 4.965 3.2436 53.104-7.0052 50.614-5.3348-2.559-7.9847-3.877-13.2476-6.586zM102.851 459.569c-10.1095-6.258-5.4073-29.452-5.4384-39.112-.0554-17.542 2.0455-35.68 4.0274-53.371 1.301-11.604.99-27.672 6.873-37.972 17.404 2.401 34.822 4.519 52.29 6.393 1.62.168 6.486.127 6.486 3.63 0 1.402-8.643 24.732-10.392 24.479-2.288-.331-6.44-8.861-19.404-10.888-11.604-1.814-19.089 8.537-18.773 19.272.099 3.313.521 9.401 4.21 10.219 4.215.935 13.594-4.91 24.839-2.901 1.608.288 6.376 2.162 6.036 4.672-1.054 7.786-5.94 24.83-9.111 26.191-.517.223-6.441-4.895-11.584-6.093-10.637-2.479-16.769 8.619-16.489 17.853.333 10.991 4.943 24.125 16.62 27.886 13.041 4.199 22.946-5.44 24.597-4.22 5.716 4.222 10.012 24.019 11.074 34.136.312 2.972-3.383 1.684-5.004 1.219-20.68-6.186-40.858-13.271-60.857-21.393zM206.283 491.451c-13.06-3.078-8.687-38.12-8.66-47.15.073-24.091 5.17-48.852 6.045-72.195.197-5.258.443-8.94-2.749-9.013-10.735-.243-22.035 15.672-29.09 17.052-.808.157-2.031.282-1.897-4.501.285-10.218 1.408-25.887 5.7-31.59 5.379-7.15 26.549-7.504 38.373-6.774 12.837.79 40.608 5.84 42.24 19.198.867 7.086-4.454 23.862-8.373 25.72-1.098.521-10.936-18.255-18.084-16.812-10.45 2.112-9.927 39.26-9.84 51.503.183 25.504 5.703 51.976 7.619 75.372.306 3.74-4.99 2.305-6.789 1.982-5.812-1.041-8.711-1.6-14.495-2.792zM365.628 343.163c11.15 1.593 7.875 23.767 7.852 31.568-.112 39.44-24.322 132.24-34.546 133.073-5.55.452-21.863-50.585-25.173-50.553-4.332.042-20.007 50.381-25.157 49.669-12.679-1.753-29.781-80.818-30.123-115.538-.092-9.392-4.794-43.524 5.594-48.77 6.94.25 10.414.358 17.372.535 1.403.035 3.43.503 3.226 2.752-1.124 12.395-4.002 26.905-4.068 40.324-.091 18.794 5.587 68.76 11.649 69.451 7.07.806 15.826-54.849 15.881-72.363.039-12.274-1.721-25.617-2.53-37.236-.149-2.136.843-2.481 2.39-2.467 7.311.069 10.97.085 18.285.074 1.827-.003 3.667.539 3.514 3.252-.639 11.384-2.638 24.055-2.671 35.904-.053 18.99 6.498 73.036 12.235 73.361 6.345.359 15.22-49.208 15.177-66.301-.035-14.174-3.711-30.025-4.775-43.541-.221-2.816 1.685-2.898 2.951-2.921 5.17-.089 7.754-.144 12.917-.273zM418.405 498.508c-31.557 5.845-39.256-31.989-39.18-55.275.09-27.292 8.205-103.102 46.112-105.428 36.198-2.221 45.399 68.501 45.446 93.083.05 25.908-8.952 59.573-38.529 65.149-5.527 1.055-8.298 1.551-13.849 2.471zm30.238-67.548c-.435-14.465-5.841-64.653-23.305-63.177-18.478 1.56-22.888 52.209-23.48 69.337-.511 14.746 6.519 30.033 23.479 27.254 16.351-2.679 23.773-17.92 23.306-33.414zM525.574 331.016c17.142-2.838 30.445 6.918 30.334 24.453-.111 17.769-19.556 34.412-19.446 42.098.156 10.788 22.483 30.71 23.297 53.546.059 1.618-.508 2.225-3.207 3.429-5.81 2.594-8.734 3.847-14.615 6.268-2.341.963-6.366 3.043-6.39.496-.123-12.7-7.39-45.399-18.16-45.707-2.942-.084-13.795 10.542-13.7 19.95.122 11.938 3.946 24.834 4.936 35.712.236 2.593-3.336 3.138-4.672 3.576-6.198 2.036-9.31 3.008-15.564 4.862-11.874.176-7.426-53.476-7.428-60.202-.004-12.901-7.236-76.633 9.313-84.313 11.784-1.244 23.553-2.632 35.302-4.168zm9.317 31.569c.287-9.84-7.923-12.225-14.859-11.347-17.55 2.222-17.118 24.539-17.282 37.646-.044 3.525.739 10.666 4.138 9.481 11.363-3.961 27.6-21.908 28.003-35.78zM631.635 312.183c1.184-.273 3.815-1.319 3.779.56-.335 17.372-21.287 39.589-20.289 46.876 1.199 8.752 23.011 26.231 22.874 47.158-.02 3.178-2.462 4.16-5.062 5.88-5.765 3.816-8.677 5.672-14.555 9.287-3.012 1.852-2.603-2.189-2.653-3.562-.407-11.141-7.385-38.331-13.402-37.735-4.156.411-13.382 15.797-13.612 23.829-.259 9 3.528 20.532 4.229 29.772.118 1.546-.991 2.913-2.359 3.644-6.072 3.243-9.133 4.814-15.299 7.855-10.132 2.649-6.971-45.036-6.972-49.878-.005-12.775-6.369-64.45 8.739-72.696 5.096-.89 7.628-1.346 12.658-2.283 1.619-.302 4.525-.852 4.227 1.434-1.621 12.388-5.734 28.111-6.096 42.068-.039 1.52.435 9.303 2.119 8.229 12.102-7.723 21.9-35.84 26.734-53.63.82-3.019.73-3.513 3.493-4.241 4.614-1.005 6.902-1.52 11.447-2.567z" fill="#F9665C"/><defs><clipPath id="clip0"><path fill="#fff" transform="translate(0 8)" d="M0 0h647.301v515.352H0z"/></clipPath><clipPath id="clip1"><path fill="#fff" d="M0 0h647.301v515.352H0z"/></clipPath></defs></svg>